<?xml version="1.0" encoding="utf-8"?>
<!-- Generator: Adobe Illustrator 26.5.1, SVG Export Plug-In . SVG Version: 6.00 Build 0)  -->
<svg version="1.1" id="Layer_1" xmlns="http://www.w3.org/2000/svg" xmlns:xlink="http://www.w3.org/1999/xlink" x="0px" y="0px"
	 viewBox="0 0 887.3 518.3" style="enable-background:new 0 0 887.3 518.3;" xml:space="preserve">
<style type="text/css">
	.st0{fill:#FFFFFF;}
	.st1{fill:none;}
</style>
<g>
	<g>
		<path class="st0" d="M175.4,276.9c36.8,0,63.7-20.6,63.7-48.6c0-56.7-88.9-38.2-88.9-66.7c0-11.6,11.3-18.4,26.4-18.4
			c16.5,0,25.1,7.9,29.6,16.8l30.8-9.9c-8.2-22-30.8-35-58.3-35c-36.9,0-61.1,22.3-61.1,49.2c0,54.8,88.3,34.6,88.3,65.9
			c0,11-12,18.4-29.5,18.4c-18.4,0-30.4-10.1-35.5-25.6l-31.2,10C116.9,259.7,142.3,276.9,175.4,276.9 M687.7,115.2
			c-46.1,0-81.9,36.4-81.9,80.9c0,44.5,35.8,80.9,81.9,80.9s82.1-36.4,82.1-80.9C769.7,151.5,733.8,115.2,687.7,115.2 M687.7,144.6
			c27.4,0,48.2,21.5,48.2,51.4c0,29.9-20.8,51.4-48.2,51.4c-27,0-48.1-21.5-48.1-51.4C639.6,166.1,660.6,144.6,687.7,144.6
			 M360.2,117.6h-28.4l-66.7,156.8h34.2l13.5-32.9h65.7l13.5,32.7l21.5-31.7L360.2,117.6z M324,214.3l21.5-53l21.6,53H324z
			 M491.8,192.9l-55.5,81.5h36.3l37.3-55.6l37.3,55.6h37.3l-56-82.3l50.7-74.6H543l-32.6,48.6l-32.6-48.6h-37.2L491.8,192.9z"/>
		<g>
			<path class="st0" d="M188.7,400.7v-50.4H208c3.6,0,6.7,0.6,9.1,1.7c2.4,1.1,4.2,2.7,5.4,4.7c1.2,2,1.8,4.2,1.8,6.7
				c0,2.1-0.4,3.8-1.2,5.3c-0.8,1.5-1.8,2.6-3.2,3.5s-2.8,1.6-4.5,1.9v0.5c1.8,0.1,3.5,0.6,5.2,1.6c1.7,1,3,2.4,4.1,4.2
				c1.1,1.8,1.6,4,1.6,6.6c0,2.6-0.6,5-1.9,7c-1.3,2.1-3.2,3.7-5.7,4.9c-2.5,1.2-5.7,1.8-9.6,1.8H188.7z M197.8,371.7h9
				c1.6,0,3-0.3,4.3-0.9c1.3-0.6,2.3-1.4,3-2.5c0.7-1.1,1.1-2.4,1.1-3.8c0-2-0.7-3.6-2.1-4.8c-1.4-1.3-3.4-1.9-6.1-1.9h-9.2V371.7z
				 M197.8,393.1h9.8c3.3,0,5.7-0.6,7.2-1.9c1.5-1.3,2.2-2.9,2.2-4.9c0-1.5-0.4-2.8-1.1-4.1c-0.7-1.2-1.8-2.2-3.2-2.9
				c-1.4-0.7-3-1-4.9-1h-10.1V393.1z"/>
			<polygon class="st0" points="240.1,400.7 240.1,350.3 272.9,350.3 272.9,357.9 249.3,357.9 249.3,371.6 271.2,371.6 271.2,379.3 
				249.3,379.3 249.3,393.1 273.1,393.1 273.1,400.7 			"/>
			<rect x="314.1" y="350.3" class="st0" width="9.1" height="50.4"/>
			<polygon class="st0" points="382.5,350.3 382.5,400.7 374.6,400.7 350.9,366.4 350.5,366.4 350.5,400.7 341.3,400.7 341.3,350.3 
				349.5,350.3 373.2,384.7 373.7,384.7 373.7,350.3 			"/>
			<polygon class="st0" points="404.3,350.3 417.4,390 417.9,390 431,350.3 441.1,350.3 423.3,400.7 412,400.7 394.2,350.3 			"/>
			<polygon class="st0" points="453.7,400.7 453.7,350.3 486.5,350.3 486.5,357.9 462.9,357.9 462.9,371.6 484.8,371.6 484.8,379.3 
				462.9,379.3 462.9,393.1 486.7,393.1 486.7,400.7 			"/>
			<path class="st0" d="M529.3,364.1c-0.2-2.2-1.2-3.8-2.9-5c-1.7-1.2-3.9-1.8-6.6-1.8c-1.9,0-3.5,0.3-4.9,0.9
				c-1.4,0.6-2.4,1.4-3.1,2.3c-0.7,1-1.1,2.1-1.1,3.4c0,1.1,0.2,2,0.7,2.7c0.5,0.8,1.1,1.4,2,2c0.8,0.5,1.8,1,2.8,1.3
				c1,0.4,2,0.7,3.1,0.9l4.7,1.2c1.9,0.4,3.7,1,5.5,1.8c1.8,0.8,3.4,1.7,4.8,2.9c1.4,1.1,2.5,2.5,3.3,4.2c0.8,1.6,1.2,3.5,1.2,5.7
				c0,3-0.8,5.6-2.3,7.8c-1.5,2.2-3.7,4-6.5,5.2c-2.8,1.3-6.3,1.9-10.3,1.9c-3.9,0-7.3-0.6-10.2-1.8c-2.9-1.2-5.1-3-6.7-5.3
				c-1.6-2.3-2.5-5.2-2.6-8.5h9c0.1,1.8,0.7,3.2,1.6,4.4c1,1.2,2.2,2,3.7,2.6c1.5,0.6,3.3,0.9,5.2,0.9c2,0,3.7-0.3,5.2-0.9
				c1.5-0.6,2.7-1.4,3.5-2.5c0.9-1.1,1.3-2.3,1.3-3.8c0-1.3-0.4-2.4-1.2-3.3c-0.8-0.9-1.8-1.6-3.2-2.2c-1.4-0.6-2.9-1.1-4.7-1.6
				l-5.7-1.5c-4.2-1.1-7.4-2.7-9.8-4.9c-2.4-2.2-3.6-5.1-3.6-8.7c0-3,0.8-5.6,2.4-7.8c1.6-2.2,3.8-4,6.6-5.2c2.8-1.2,6-1.9,9.5-1.9
				c3.6,0,6.7,0.6,9.4,1.9c2.7,1.2,4.8,3,6.4,5.1c1.5,2.2,2.3,4.7,2.4,7.5H529.3z"/>
			<polygon class="st0" points="547.2,357.9 547.2,350.3 587.4,350.3 587.4,357.9 571.8,357.9 571.8,400.7 562.8,400.7 562.8,357.9 
							"/>
			<polygon class="st0" points="600,400.7 600,350.3 632.8,350.3 632.8,357.9 609.2,357.9 609.2,371.6 631.1,371.6 631.1,379.3 
				609.2,379.3 609.2,393.1 633,393.1 633,400.7 			"/>
			<path class="st0" d="M666.8,400.7h-17.1v-50.4h17.4c5,0,9.3,1,12.9,3c3.6,2,6.4,4.9,8.3,8.7c1.9,3.8,2.9,8.3,2.9,13.5
				c0,5.3-1,9.8-2.9,13.5c-1.9,3.8-4.7,6.7-8.4,8.7C676.3,399.7,671.9,400.7,666.8,400.7 M658.8,392.8h7.5c3.5,0,6.4-0.6,8.8-1.9
				c2.3-1.3,4.1-3.2,5.3-5.8c1.2-2.6,1.8-5.8,1.8-9.6c0-3.9-0.6-7.1-1.8-9.6c-1.2-2.6-2.9-4.5-5.2-5.7c-2.3-1.3-5.2-1.9-8.6-1.9
				h-7.8V392.8z"/>
		</g>
	</g>
</g>
<rect x="0" class="st1" width="887.3" height="518.3"/>
</svg>
