<?xml version="1.0" standalone="no"?>
<!DOCTYPE svg PUBLIC "-//W3C//DTD SVG 20010904//EN"
 "http://www.w3.org/TR/2001/REC-SVG-20010904/DTD/svg10.dtd">
<svg version="1.0" xmlns="http://www.w3.org/2000/svg"
 width="822.000000pt" height="819.000000pt" viewBox="0 0 822.000000 819.000000"
 preserveAspectRatio="xMidYMid meet">

<g transform="translate(0.000000,819.000000) scale(0.100000,-0.100000)"
fill="#000000" stroke="none">
<path d="M6313 6808 c-30 -18 -33 -24 -34 -71 0 -29 -4 -75 -8 -104 -4 -29 -4
-83 0 -122 11 -99 -4 -528 -18 -542 -8 -8 -71 -12 -183 -14 -234 -3 -219 13
-215 -238 5 -270 5 -1031 0 -1157 -2 -58 -2 -291 2 -518 l6 -414 23 -10 c13
-6 24 -19 24 -30 0 -13 7 -18 28 -18 32 0 72 25 72 45 0 7 6 15 13 17 9 4 13
119 14 524 2 412 9 979 13 1074 0 8 -2 44 -5 79 -4 44 -2 68 7 79 10 12 10 16
1 19 -10 4 -13 44 -13 158 0 135 2 156 19 176 16 19 21 21 34 11 10 -9 17 -10
22 -2 4 6 91 10 250 10 l245 0 5 -27 c3 -16 10 -47 15 -71 6 -23 10 -140 10
-259 l0 -218 32 -47 c18 -26 39 -49 48 -51 26 -7 70 18 91 52 18 30 19 49 17
359 -3 311 -4 329 -24 362 -11 19 -19 41 -16 48 2 7 -2 19 -8 27 -10 12 -39
15 -128 15 -63 0 -132 5 -153 12 l-39 11 -2 136 c-1 75 -3 204 -4 286 -3 304
-17 405 -52 398 -7 -2 -12 4 -12 13 0 10 -6 14 -15 10 -8 -3 -15 -1 -15 4 0
14 -10 11 -47 -12z"/>
<path d="M1875 6010 c-3 -11 -11 -20 -16 -20 -16 0 -9 -34 11 -60 11 -14 34
-52 50 -85 32 -65 51 -97 61 -105 4 -3 13 -21 21 -40 9 -20 21 -42 29 -50 8
-8 37 -42 66 -75 106 -124 302 -314 330 -321 15 -4 34 -16 41 -26 7 -10 18
-16 23 -12 6 4 6 11 -2 20 -9 11 -7 14 9 14 15 0 19 5 15 21 -5 17 -2 20 23
17 28 -3 29 -2 30 43 1 43 -2 50 -60 110 -34 35 -68 73 -76 84 -8 11 -37 38
-65 60 -27 22 -65 58 -85 80 -41 48 -112 118 -160 161 -19 17 -53 52 -75 77
-22 26 -47 49 -55 52 -8 3 -33 21 -54 40 -46 41 -52 42 -61 15z"/>
<path d="M7425 5160 c-73 -14 -357 -140 -385 -171 -3 -3 -23 -16 -45 -29 -22
-13 -42 -27 -45 -30 -3 -4 -26 -17 -52 -29 -27 -13 -48 -26 -48 -30 0 -3 -18
-17 -40 -31 -22 -14 -40 -28 -40 -32 0 -5 -7 -8 -15 -8 -13 0 -38 -22 -92 -83
-13 -14 -23 -28 -23 -32 0 -3 -7 -13 -15 -21 -25 -26 -19 -93 11 -120 33 -32
78 -31 140 2 27 15 67 35 89 46 22 10 57 28 77 39 58 30 72 26 63 -18 -4 -26
-19 -50 -45 -73 -21 -19 -41 -46 -45 -60 -4 -14 -11 -27 -14 -30 -12 -8 -81
-151 -81 -166 0 -8 -4 -14 -9 -14 -5 0 -12 -12 -15 -27 -4 -16 -24 -53 -43
-83 -50 -76 -99 -171 -108 -209 -3 -17 -10 -31 -13 -31 -4 0 -13 -13 -20 -28
-6 -16 -20 -37 -30 -48 -9 -10 -23 -30 -30 -44 -7 -14 -21 -38 -31 -55 -11
-16 -25 -46 -32 -65 -7 -19 -23 -52 -36 -72 -12 -21 -23 -44 -23 -52 0 -20
-39 -106 -64 -141 -12 -16 -32 -50 -44 -75 -13 -25 -26 -52 -31 -60 -30 -54
-41 -80 -41 -93 0 -7 -12 -32 -28 -53 -15 -21 -40 -64 -55 -94 -30 -60 -49
-92 -58 -100 -10 -8 -57 -91 -85 -150 -15 -30 -30 -57 -34 -60 -9 -6 -68 -108
-76 -132 -4 -10 -10 -18 -15 -18 -5 0 -9 -7 -9 -15 0 -9 -7 -18 -15 -21 -8 -3
-17 -15 -21 -27 -4 -12 -12 -27 -18 -34 -25 -28 -50 -66 -68 -103 -7 -14 -18
-31 -25 -38 -7 -7 -13 -19 -13 -27 0 -7 -3 -15 -7 -17 -10 -4 -38 -53 -54 -90
-6 -16 -15 -28 -20 -28 -5 0 -9 -4 -9 -10 0 -10 -61 -68 -149 -143 -113 -96
-307 -103 -443 -16 -26 17 -48 34 -48 38 0 4 -12 14 -27 23 -16 9 -44 32 -63
52 -19 19 -39 36 -44 36 -11 0 -136 128 -136 139 0 8 -183 187 -218 213 -9 7
-25 25 -34 39 -20 32 -31 43 -98 100 -28 24 -63 54 -77 67 -75 69 -143 93
-279 99 -87 4 -94 3 -166 -31 -56 -26 -94 -54 -151 -111 -43 -42 -77 -83 -77
-91 0 -8 -4 -14 -10 -14 -5 0 -12 -11 -16 -25 -3 -14 -10 -25 -15 -25 -5 0 -9
-5 -9 -10 0 -11 -37 -67 -56 -85 -20 -19 -64 -84 -64 -94 0 -5 -6 -16 -12 -23
-34 -36 -88 -108 -88 -117 0 -6 -4 -11 -10 -11 -5 0 -10 -11 -10 -25 0 -14 -8
-29 -20 -35 -11 -6 -20 -17 -20 -25 0 -8 -4 -15 -9 -15 -5 0 -13 -10 -16 -22
-4 -11 -18 -31 -31 -43 -13 -12 -24 -27 -24 -34 0 -6 -4 -11 -9 -11 -5 0 -26
-26 -47 -57 -34 -51 -78 -106 -164 -201 -17 -18 -30 -36 -30 -40 0 -5 -16 -23
-35 -42 -19 -19 -35 -38 -35 -43 0 -15 -151 -162 -196 -190 -22 -14 -47 -31
-55 -39 -31 -28 -82 -50 -133 -55 l-54 -6 -6 164 c-8 192 -2 1551 6 1565 4 5
118 9 275 9 l268 0 -2 -430 c-2 -532 -2 -536 44 -571 26 -19 38 -23 46 -15 6
6 18 11 27 11 8 0 28 11 43 25 23 22 27 34 27 78 0 29 0 272 0 541 0 428 -3
492 -16 516 -29 47 -50 54 -194 58 -74 2 -138 7 -142 10 -4 4 -11 87 -16 185
l-10 178 -28 24 c-34 29 -97 33 -129 9 -18 -14 -20 -30 -25 -202 -3 -103 -9
-193 -13 -199 -6 -9 -46 -13 -143 -13 -83 0 -134 -4 -134 -10 0 -5 -7 -10 -15
-10 -8 0 -19 -16 -25 -40 -6 -21 -15 -42 -20 -45 -6 -4 -8 -11 -4 -16 7 -12
10 -591 2 -604 -10 -19 -8 -1269 3 -1307 17 -65 48 -88 130 -100 52 -8 85 -8
121 1 71 16 98 14 100 -6 1 -10 2 -127 2 -260 1 -241 1 -241 25 -267 36 -38
89 -36 126 5 25 29 28 42 36 138 4 58 8 176 8 262 1 186 13 256 50 292 101 97
183 186 195 212 13 26 54 73 95 110 25 22 81 87 81 93 0 7 32 46 84 102 12 14
34 45 47 70 29 52 29 53 75 110 20 25 71 90 112 145 42 55 80 102 84 103 4 2
8 10 8 18 0 8 8 22 18 32 9 10 39 50 66 90 27 40 52 72 55 72 3 0 17 17 31 38
13 20 40 53 59 72 35 35 36 35 121 34 61 0 94 -5 115 -17 17 -9 33 -17 38 -17
4 0 16 -8 27 -18 10 -9 47 -42 81 -72 34 -30 91 -83 126 -117 35 -35 68 -63
73 -63 5 0 12 -11 16 -25 3 -13 15 -27 25 -30 10 -4 24 -16 31 -28 6 -12 23
-31 37 -42 14 -11 46 -40 71 -65 72 -72 150 -140 160 -140 6 0 10 -7 10 -15 0
-9 8 -19 17 -22 15 -6 41 -25 77 -58 39 -35 122 -87 149 -92 18 -3 38 -11 46
-17 9 -7 64 -11 145 -11 106 0 141 4 181 20 28 10 52 21 55 24 3 4 21 14 40
24 19 10 53 34 75 53 22 19 52 43 68 52 15 9 27 19 27 23 0 4 18 27 40 51 22
23 59 69 82 101 23 31 46 57 50 57 5 0 8 5 8 10 0 6 8 19 18 29 28 32 39 46
51 70 7 12 15 20 18 17 4 -3 13 0 21 6 18 15 200 13 249 -3 l32 -10 1 -232 c1
-281 5 -338 30 -394 18 -40 21 -43 59 -43 38 0 43 4 71 48 l30 47 0 256 c0
296 3 319 36 319 12 0 26 4 29 10 3 6 48 9 105 7 93 -2 101 -1 115 21 9 12 20
22 25 22 6 0 18 7 29 16 24 21 25 46 23 572 -2 450 -1 442 -78 442 -32 0 -50
-6 -70 -25 l-27 -25 -9 -223 c-16 -442 -17 -503 -9 -542 12 -64 5 -67 -187
-69 -193 -1 -319 7 -335 23 -7 7 -6 16 4 28 9 10 24 37 34 61 10 23 21 42 25
42 4 0 10 16 13 36 3 20 13 44 21 53 8 9 53 92 100 185 48 93 90 174 95 180
14 17 70 117 87 154 8 17 18 32 23 32 5 0 11 8 15 18 3 9 28 51 55 92 67 102
131 231 131 264 0 9 4 24 9 34 5 9 24 49 42 87 18 39 40 78 51 88 10 10 18 27
18 37 0 11 4 20 8 20 5 0 25 34 46 75 21 41 41 75 46 75 4 0 10 10 14 23 3 13
17 36 31 51 14 15 25 33 25 41 0 7 6 20 13 27 18 18 107 155 114 176 9 24 105
153 132 176 l21 19 0 -196 c0 -148 3 -198 13 -204 7 -4 20 -20 30 -35 23 -37
73 -38 111 -3 14 13 26 27 26 31 0 4 8 16 17 27 15 16 18 43 21 165 2 81 3
156 3 167 -1 11 3 29 9 40 9 19 17 92 42 383 6 72 15 132 20 132 4 0 8 22 8
49 0 48 0 48 -37 55 -44 7 -64 6 -118 -4z m95 -226 c0 -8 -4 -12 -10 -9 -5 3
-10 10 -10 16 0 5 5 9 10 9 6 0 10 -7 10 -16z m-2760 -2704 c0 -5 -9 -10 -20
-10 -11 0 -20 5 -20 10 0 6 9 10 20 10 11 0 20 -4 20 -10z m-75 -10 c3 -5 -1
-10 -10 -10 -9 0 -13 5 -10 10 3 6 8 10 10 10 2 0 7 -4 10 -10z"/>
<path d="M1360 5144 c0 -8 -7 -14 -15 -14 -9 0 -20 -12 -25 -26 -9 -22 -7 -30
14 -48 44 -38 70 -56 83 -56 7 0 13 -4 13 -10 0 -5 6 -10 14 -10 8 0 21 -6 28
-14 8 -7 27 -20 43 -29 17 -8 52 -35 79 -60 50 -45 74 -59 158 -96 26 -12 59
-32 74 -46 15 -14 38 -28 51 -31 13 -4 23 -10 23 -15 0 -5 17 -16 37 -24 21
-9 44 -22 53 -29 26 -23 95 -30 114 -11 8 9 28 17 43 19 19 1 28 7 27 19 -1
10 5 17 17 17 11 0 19 2 19 5 0 13 -32 67 -51 88 -68 72 -104 107 -113 107 -6
1 -29 9 -51 20 -22 11 -46 19 -52 20 -7 0 -13 4 -13 10 0 5 -11 12 -25 16 -14
3 -25 10 -25 14 0 5 -13 11 -30 15 -16 4 -30 10 -30 14 0 3 -12 12 -27 18 -27
12 -63 33 -73 43 -14 14 -81 41 -125 50 -27 6 -52 15 -55 21 -4 5 -24 10 -46
12 -21 1 -45 6 -53 11 -25 16 -81 16 -81 0z"/>
<path d="M5055 4913 c-16 -3 -34 -9 -40 -14 -5 -6 -13 -94 -17 -197 -3 -103
-10 -213 -13 -244 -5 -41 -4 -62 5 -73 9 -11 9 -15 1 -15 -8 0 -9 -5 -3 -17
20 -35 -10 -44 -165 -50 -157 -7 -168 -10 -188 -63 -6 -15 -9 -288 -9 -690 2
-832 2 -809 25 -839 11 -13 19 -29 19 -37 0 -33 75 -16 117 28 l28 29 -4 377
c-7 640 -6 926 1 953 7 23 15 28 61 33 73 9 393 10 439 1 37 -7 52 -23 39 -43
-3 -6 -3 -55 1 -109 7 -106 8 -177 13 -868 1 -300 6 -469 13 -487 13 -32 24
-39 75 -48 37 -7 40 -6 68 32 l28 40 -3 512 c-2 281 -4 516 -5 521 0 6 2 115
4 243 2 128 -1 245 -6 260 -5 15 -11 44 -14 64 -4 23 -18 49 -36 68 l-31 30
-139 0 -139 0 -2 203 c-1 231 -1 223 -11 233 -4 4 -7 34 -7 66 0 43 -4 60 -15
64 -8 4 -15 12 -15 19 0 12 -24 27 -38 24 -4 -1 -20 -4 -37 -6z"/>
<path d="M1690 4067 c-3 -3 -52 -8 -110 -11 -176 -10 -241 -20 -256 -41 -32
-44 -10 -90 51 -107 90 -25 515 -33 522 -11 3 8 12 9 27 3 19 -7 27 -4 43 18
11 15 22 46 25 69 10 69 -8 77 -166 81 -72 2 -133 1 -136 -1z"/>
<path d="M3911 1994 c-16 -12 -19 -19 -11 -24 9 -6 9 -14 -2 -36 -10 -22 -13
-88 -13 -281 l0 -253 -25 -2 c-14 0 -87 -2 -163 -2 -109 -2 -140 -5 -148 -16
-16 -24 -6 -141 15 -172 l18 -28 149 0 148 0 6 -32 c3 -18 5 -46 5 -63 -1 -16
-1 -75 -1 -130 -1 -55 -1 -118 -1 -140 -1 -186 2 -214 26 -239 31 -35 102 -37
130 -5 23 28 25 44 30 325 2 136 8 240 15 252 12 23 50 32 139 32 69 0 142 24
142 47 0 7 4 13 9 13 11 0 24 82 15 103 -3 10 -17 20 -30 23 -13 3 -24 10 -24
15 0 5 -52 9 -116 9 -63 0 -124 4 -134 10 -17 9 -18 28 -19 276 -1 266 -5 313
-25 326 -21 14 -111 8 -135 -8z"/>
<path d="M4654 1769 c-18 -20 -19 -38 -18 -273 1 -303 3 -309 80 -314 49 -3
51 -2 77 38 l27 42 0 223 c0 186 -2 225 -15 235 -8 7 -15 16 -15 21 0 5 -8 18
-17 29 -24 28 -93 28 -119 -1z"/>
</g>
</svg>
